<svg id='Express_Js_48' width='48' height='48' viewBox='0 0 48 48' xmlns='http://www.w3.org/2000/svg' xmlns:xlink='http://www.w3.org/1999/xlink'><rect width='48' height='48' stroke='none' fill='#000000' opacity='0'/>


<g transform="matrix(0.55 0 0 0.55 24 24)" >
<g style="" >
<g transform="matrix(1 0 0 1 17.81 1)" >
<path style="stroke: none; stroke-width: 1; stroke-dasharray: none; stroke-linecap: butt; stroke-dashoffset: 0; stroke-linejoin: miter; stroke-miterlimit: 4; fill: rgb(176,193,212); fill-rule: nonzero; opacity: 1;" transform=" translate(-57.81, -41)" d="M 74.01 62.5 C 72.215 62.5 70.49300000000001 61.648 69.403 60.223 L 57.807 45.06 L 46.211 60.223 C 45.120999999999995 61.649 43.399 62.5 41.604 62.5 L 38.176 62.5 L 54.66 40.944 L 38.261 19.5 L 41.689 19.5 C 43.484 19.5 45.207 20.351 46.296 21.776 L 57.806 36.828 L 69.316 21.776000000000003 C 70.406 20.350000000000005 72.128 19.500000000000004 73.923 19.500000000000004 L 77.351 19.500000000000004 L 60.954 40.944 L 77.438 62.5 L 74.01 62.5 z" stroke-linecap="round" />
</g>
<g transform="matrix(1 0 0 1 17.81 1)" >
<path style="stroke: none; stroke-width: 1; stroke-dasharray: none; stroke-linecap: butt; stroke-dashoffset: 0; stroke-linejoin: miter; stroke-miterlimit: 4; fill: rgb(102,121,143); fill-rule: nonzero; opacity: 1;" transform=" translate(-57.81, -41)" d="M 76.341 20 L 60.324 40.944 L 76.426 62 L 74.01 62 C 72.35900000000001 62 70.80300000000001 61.231 69.80000000000001 59.919 L 57.807 44.237 L 45.814 59.919 C 44.811 61.231 43.254 62 41.604 62 L 39.187 62 L 55.289 40.944 L 39.273 20 L 41.690000000000005 20 C 43.34100000000001 20 44.897000000000006 20.769 45.900000000000006 22.081 L 57.807 37.652 L 69.714 22.081000000000003 C 70.717 20.769 72.273 20 73.924 20 L 76.341 20 M 78.364 19 L 76.34 19 L 73.923 19 C 71.974 19 70.10300000000001 19.925 68.918 21.473 L 57.807 36.005 L 46.694 21.473 C 45.51 19.925 43.639 19 41.689 19 L 39.272 19 L 37.248 19 L 38.477 20.607 L 54.03 40.944 L 38.393 61.393 L 37.163 63 L 39.187 63 L 41.604 63 C 43.553 63 45.424 62.075 46.609 60.527 L 57.807 45.883 L 69.005 60.527 C 70.189 62.075 72.06 63 74.01 63 L 76.427 63 L 78.45100000000001 63 L 77.22200000000001 61.393 L 61.583 40.944 L 77.13499999999999 20.607000000000003 L 78.364 19 L 78.364 19 z" stroke-linecap="round" />
</g>
<g transform="matrix(1 0 0 1 -20 1)" >
<path style="stroke: none; stroke-width: 1; stroke-dasharray: none; stroke-linecap: butt; stroke-dashoffset: 0; stroke-linejoin: miter; stroke-miterlimit: 4; fill: rgb(176,193,212); fill-rule: nonzero; opacity: 1;" transform=" translate(-20, -41)" d="M 20 64.5 C 9.799 64.5 1.5 55.906 1.5 45.344 L 1.5 36.655 C 1.5 26.093 9.799 17.5 20 17.5 C 30.201 17.5 38.5 26.093 38.5 36.653999999999996 L 38.5 44.498999999999995 L 6.5 44.5 L 6.5 45.344 C 6.5 53.15 12.556 59.5 20 59.5 C 24.111 59.5 28.093 57.433 30.653 53.971000000000004 C 31.814 52.400000000000006 33.513 51.499 35.314 51.499 L 37.025 51.499 L 37.229 51.703 L 37.363 51.971000000000004 L 37.288 52.17400000000001 C 34.571 59.547 27.624 64.5 20 64.5 z M 33.5 39.5 L 33.5 36.653999999999996 C 33.5 28.85 27.444 22.5 20 22.5 C 12.556000000000001 22.5 6.5 28.85 6.5 36.655 L 6.5 39.5 L 33.5 39.5 z" stroke-linecap="round" />
</g>
<g transform="matrix(1 0 0 1 -20 1)" >
<path style="stroke: none; stroke-width: 1; stroke-dasharray: none; stroke-linecap: butt; stroke-dashoffset: 0; stroke-linejoin: miter; stroke-miterlimit: 4; fill: rgb(102,121,143); fill-rule: nonzero; opacity: 1;" transform=" translate(-20, -41)" d="M 20 18 C 29.925 18 38 26.369 38 36.653999999999996 L 38 43.998999999999995 L 6 44 L 6 45.344 C 6 53.426 12.28 60 20 60 C 24.376 60 28.445999999999998 57.797 31.055 54.268 C 32.071 52.894 33.605 51.999 35.314 51.999 L 36.819 51.999 C 36.819 52 36.819 52 36.819 52.001 C 34.175 59.176 27.411 64 20 64 C 10.075 64 2 55.631 2 45.344 L 2 36.655 C 2 26.369 10.075 18 20 18 M 6 40 L 34 40 L 34 36.653999999999996 C 34 28.574 27.72 22 20 22 C 12.280000000000001 22 6 28.574 6 36.654 L 6 40 M 20 17 C 9.523 17 1 25.817 1 36.654 L 1 45.343 C 1 56.182 9.523 65 20 65 C 27.832 65 34.968 59.915 37.757999999999996 52.347 L 38.254 51.001000000000005 L 36.818999999999996 50.999 L 35.31399999999999 50.999 C 33.352999999999994 50.999 31.507999999999992 51.974000000000004 30.250999999999994 53.674 C 27.785 57.009 23.953 59 20 59 C 12.832 59 7 52.874 7 45.344 L 7 45 L 38 44.999 L 39 44.999 L 39 43.999 L 39 36.654 C 39 25.817 30.477 17 20 17 L 20 17 z M 7 39 L 7 36.653999999999996 C 7 29.125 12.832 23 20 23 C 27.168 23 33 29.125 33 36.653999999999996 L 33 39 L 7 39 L 7 39 z" stroke-linecap="round" />
</g>
</g>
</g>
</svg>