<svg id='MySQL_Logo_48' width='48' height='48' viewBox='0 0 48 48' xmlns='http://www.w3.org/2000/svg' xmlns:xlink='http://www.w3.org/1999/xlink'><rect width='50' height='50' stroke='none' fill='#000000' opacity='0'/>


<g transform="matrix(0.92 0 0 0.92 24 24)" >
<g style="" >
<g transform="matrix(1 0 0 1 -13.44 7.68)" >
<linearGradient id="SVGID_eDMgMixeD6M6EYSYBuJ8ya_1" gradientUnits="userSpaceOnUse" gradientTransform="matrix(1 0 0 1 0 0)" x1="9.8" y1="25.236" x2="11.081" y2="36.899">
<stop offset="0%" style="stop-color:rgb(5,143,146);stop-opacity: 1"/>
<stop offset="50%" style="stop-color:rgb(3,132,137);stop-opacity: 1"/>
<stop offset="100%" style="stop-color:rgb(2,109,113);stop-opacity: 1"/>
</linearGradient>
<path style="stroke: none; stroke-width: 1; stroke-dasharray: none; stroke-linecap: butt; stroke-dashoffset: 0; stroke-linejoin: miter; stroke-miterlimit: 4; fill: url(#SVGID_eDMgMixeD6M6EYSYBuJ8ya_1); fill-rule: nonzero; opacity: 1;" transform=" translate(-10.56, -31.68)" d="M 0.002 35.041 L 1.922 35.041 L 1.922 27.955999999999996 L 4.5889999999999995 34.013 C 4.917999999999999 34.768 5.367999999999999 35.035 6.2509999999999994 35.035 C 7.1339999999999995 35.035 7.565999999999999 34.767999999999994 7.895 34.013 L 10.562 28.110999999999997 L 10.562 35.041 L 12.482 35.041 L 12.482 27.782999999999998 C 12.482 27.086 12.205 26.747999999999998 11.633 26.573999999999998 C 10.265999999999998 26.144 9.347999999999999 26.514999999999997 8.933 27.445999999999998 L 6.198 33.605999999999995 L 3.5490000000000004 27.445999999999994 C 3.1510000000000002 26.515999999999995 2.2170000000000005 26.143999999999995 0.8490000000000002 26.573999999999995 C 0.277 26.748 0 27.085 0 27.782 L 0 35.04 L 0.002 35.04 z M 13.441 29.281 L 15.361 29.281 L 15.361 33.336 C 15.346 33.536 15.425 34.067 16.351 34.080999999999996 C 16.823 34.089 19.172 34.080999999999996 19.201 34.080999999999996 L 19.201 29.280999999999995 L 21.121000000000002 29.280999999999995 C 21.129 29.280999999999995 21.121000000000002 35.248999999999995 21.121000000000002 35.273999999999994 C 21.131000000000004 36.745999999999995 19.293000000000003 36.93599999999999 18.448 36.96099999999999 L 13.442 36.96099999999999 L 13.442 36.00099999999999 C 13.452 36.00099999999999 18.229 36.00199999999999 18.243000000000002 36.00099999999999 C 19.331000000000003 35.88599999999999 19.202 35.28699999999999 19.202 35.10499999999999 L 19.202 35.04099999999999 L 16.19 35.04099999999999 C 14.520000000000001 35.02599999999999 13.455000000000002 34.28999999999999 13.443000000000001 33.450999999999986 C 13.441 33.373 13.479 29.317 13.441 29.281 z" stroke-linecap="round" />
</g>
<g transform="matrix(1 0 0 1 11.04 7.2)" >
<linearGradient id="SVGID_eDMgMixeD6M6EYSYBuJ8yb_2" gradientUnits="userSpaceOnUse" gradientTransform="matrix(1 0 0 1 0 0)" x1="34.224" y1="25.644" x2="35.101" y2="35.217">
<stop offset="0%" style="stop-color:rgb(255,156,15);stop-opacity: 1"/>
<stop offset="81.3%" style="stop-color:rgb(214,126,0);stop-opacity: 1"/>
</linearGradient>
<path style="stroke: none; stroke-width: 1; stroke-dasharray: none; stroke-linecap: butt; stroke-dashoffset: 0; stroke-linejoin: miter; stroke-miterlimit: 4; fill: url(#SVGID_eDMgMixeD6M6EYSYBuJ8yb_2); fill-rule: nonzero; opacity: 1;" transform=" translate(-35.04, -31.2)" d="M 22.081 35.041 L 26.887999999999998 35.041 C 27.517999999999997 35.041 28.13 34.909 28.616 34.681 C 29.426 34.309 29.759999999999998 33.806 29.759999999999998 33.144999999999996 L 29.759999999999998 31.776999999999997 C 29.759999999999998 30.301 27.93 30.240999999999996 26.88 30.240999999999996 L 24.96 30.240999999999996 C 24.205000000000002 30.240999999999996 24.09 29.784999999999997 24 29.280999999999995 L 24 28.320999999999994 C 24.09 27.936999999999994 24.258 27.420999999999996 24.923000000000002 27.360999999999994 C 25.696 27.360999999999994 29.759 27.360999999999994 29.759 27.360999999999994 L 29.759 26.400999999999993 L 25.193 26.400999999999993 C 24.438000000000002 26.400999999999993 22.079 26.490999999999993 22.079 28.32099999999999 L 22.079 29.507999999999992 C 22.079 30.347999999999992 22.817 31.031999999999993 24.419 31.199999999999992 C 24.599 31.211999999999993 24.779 31.223999999999993 24.958000000000002 31.223999999999993 C 24.958000000000002 31.223999999999993 26.824 31.18799999999999 26.878 31.199999999999992 C 27.958 31.199999999999992 27.838 32.03999999999999 27.838 32.15999999999999 L 27.838 33.11999999999999 C 27.838 33.25199999999999 27.808 34.07999999999999 26.867 34.07999999999999 C 26.795 34.07999999999999 22.078000000000003 34.07999999999999 22.078000000000003 34.07999999999999 L 22.078000000000003 35.041 z M 40.32 33.08 C 40.32 34.239 40.975 34.888999999999996 42.712 35.019 C 42.874 35.03 43.037000000000006 35.04 43.2 35.04 L 48 35.04 L 48 34.08 L 43.565 34.08 C 42.574 34.08 42.239999999999995 33.664 42.239999999999995 33.068999999999996 L 42.239999999999995 26.399999999999995 L 40.31999999999999 26.399999999999995 L 40.31999999999999 33.08 z M 30.704 33.121 L 30.704 28.321 C 30.704 27.301000000000002 31.204 26.597 32.62 26.401000000000003 L 33.291999999999994 26.401000000000003 L 36.739 26.401000000000003 L 37.263999999999996 26.401000000000003 C 38.67999999999999 26.597000000000005 39.343999999999994 27.300000000000004 39.343999999999994 28.321000000000005 L 39.343999999999994 33.10300000000001 C 39.343999999999994 33.93000000000001 39.12899999999999 34.37400000000001 38.428 34.662000000000006 L 39.916 36 L 37.756 36 L 36.686 35.04 L 35.429 35.04 L 33.293 35.052 C 32.984 35.052 32.658 35.009 32.3 34.911 C 31.226 34.618 30.704 34.054 30.704 33.121 z M 32.624 33.121 C 32.722 33.588 33.097 34.081 33.764 34.081 L 35.628 34.081 L 34.56 33.121 L 36.735 33.121 L 37.254 33.603 C 37.254 33.603 37.44 33.451 37.44 33.121 C 37.44 32.791000000000004 37.424 28.321 37.424 28.321 C 37.326 27.887 36.886 27.361 36.236 27.361 L 33.765 27.361 C 33.016 27.361 32.625 27.909 32.625 28.419 L 32.624 33.121 L 32.624 33.121 z" stroke-linecap="round" />
</g>
<g transform="matrix(1 0 0 1 14.24 -3.69)" >
<linearGradient id="SVGID_eDMgMixeD6M6EYSYBuJ8yc_3" gradientUnits="userSpaceOnUse" gradientTransform="matrix(1 0 0 1 0 0)" x1="35.029" y1="11.716" x2="40.355" y2="26.75">
<stop offset="0%" style="stop-color:rgb(5,143,146);stop-opacity: 1"/>
<stop offset="50%" style="stop-color:rgb(3,132,137);stop-opacity: 1"/>
<stop offset="100%" style="stop-color:rgb(2,109,113);stop-opacity: 1"/>
</linearGradient>
<path style="stroke: none; stroke-width: 1; stroke-dasharray: none; stroke-linecap: butt; stroke-dashoffset: 0; stroke-linejoin: miter; stroke-miterlimit: 4; fill: url(#SVGID_eDMgMixeD6M6EYSYBuJ8yc_3); fill-rule: nonzero; opacity: 1;" transform=" translate(-38.24, -20.31)" d="M 46.199 25.389 C 45.168 25.361 44.381 25.457 43.708 25.74 C 43.516999999999996 25.820999999999998 43.211999999999996 25.822999999999997 43.18 26.063 C 43.285 26.173 43.301 26.337999999999997 43.385 26.473 C 43.544999999999995 26.733 43.817 27.082 44.059 27.264 C 44.324 27.464 44.596999999999994 27.678 44.879999999999995 27.851 C 45.38399999999999 28.157999999999998 45.946999999999996 28.334 46.43299999999999 28.642 C 46.718999999999994 28.823 47.00299999999999 29.053 47.282999999999994 29.256999999999998 C 47.42099999999999 29.358999999999998 47.51299999999999 29.516 47.69299999999999 29.58 C 47.69299999999999 29.569999999999997 47.69299999999999 29.561 47.69299999999999 29.551 C 47.59899999999999 29.430999999999997 47.57399999999999 29.266 47.48799999999999 29.139999999999997 C 47.36099999999999 29.012999999999998 47.233999999999995 28.885999999999996 47.10699999999999 28.758999999999997 C 46.73499999999999 28.264999999999997 46.260999999999996 27.83 45.75899999999999 27.469999999999995 C 45.35799999999999 27.181999999999995 44.46099999999999 26.792999999999996 44.29299999999999 26.326999999999995 C 44.282999999999994 26.316999999999993 44.273999999999994 26.307999999999996 44.26299999999999 26.296999999999993 C 44.54699999999999 26.264999999999993 44.87999999999999 26.161999999999992 45.14199999999999 26.091999999999995 C 45.58299999999999 25.973999999999997 45.97599999999999 26.004999999999995 46.43099999999999 25.886999999999997 C 46.63599999999999 25.827999999999996 46.84099999999999 25.769999999999996 47.04599999999999 25.711 C 47.04599999999999 25.671999999999997 47.04599999999999 25.633 47.04599999999999 25.593999999999998 C 46.815999999999995 25.357999999999997 46.65099999999999 25.046 46.40099999999999 24.831999999999997 C 45.743999999999986 24.272999999999996 45.02799999999999 23.714999999999996 44.29099999999999 23.249 C 43.88199999999999 22.991 43.37599999999999 22.823 42.94299999999999 22.604 C 42.79699999999999 22.529999999999998 42.54099999999999 22.492 42.44499999999999 22.369999999999997 C 42.21699999999999 22.08 42.093999999999994 21.711 41.91799999999999 21.374 C 41.54999999999999 20.666 41.187999999999995 19.892 40.86299999999999 19.147 C 40.63999999999999 18.639 40.49499999999999 18.136999999999997 40.21799999999999 17.680999999999997 C 38.886999999999986 15.492999999999997 37.453999999999986 14.171999999999997 35.23599999999999 12.873999999999997 C 34.76399999999999 12.597999999999997 34.19499999999999 12.488999999999997 33.59399999999999 12.345999999999997 C 33.27099999999999 12.326999999999996 32.948999999999984 12.306999999999997 32.62599999999999 12.286999999999997 C 32.42899999999999 12.203999999999997 32.22499999999999 11.963999999999997 32.03899999999999 11.846999999999998 C 31.303999999999988 11.381999999999998 29.41799999999999 10.371999999999998 28.873999999999988 11.699999999999998 C 28.529999999999987 12.537999999999997 29.387999999999987 13.355999999999998 29.69499999999999 13.780999999999997 C 29.90999999999999 14.078999999999997 30.18599999999999 14.412999999999997 30.33999999999999 14.748999999999997 C 30.44099999999999 14.968999999999998 30.45899999999999 15.189999999999998 30.544999999999987 15.422999999999996 C 30.75799999999999 15.996999999999996 31.094999999999988 16.650999999999996 31.370999999999988 17.181999999999995 C 31.509999999999987 17.450999999999993 31.663999999999987 17.732999999999993 31.83999999999999 17.972999999999995 C 31.94799999999999 18.119999999999994 32.13299999999999 18.184999999999995 32.16299999999999 18.412999999999997 C 31.98199999999999 18.665999999999997 31.97199999999999 19.058999999999997 31.86999999999999 19.380999999999997 C 31.411999999999992 20.825999999999997 31.58499999999999 22.620999999999995 32.25099999999999 23.688999999999997 C 32.45499999999999 24.016999999999996 32.93699999999999 24.720999999999997 33.59899999999999 24.450999999999997 C 34.17799999999999 24.214999999999996 34.04899999999999 23.483999999999998 34.21399999999999 22.839 C 34.25099999999999 22.692999999999998 34.227999999999994 22.586 34.30199999999999 22.488 C 34.30199999999999 22.498 34.30199999999999 22.506999999999998 34.30199999999999 22.518 C 34.477999999999994 22.869 34.65299999999999 23.222 34.82999999999999 23.573 C 35.22099999999999 24.202 35.913999999999994 24.859 36.49999999999999 25.303 C 36.803999999999995 25.533 37.04399999999999 25.931 37.437999999999995 26.065 C 37.437999999999995 26.055 37.437999999999995 26.046000000000003 37.437999999999995 26.035 C 37.428 26.035 37.419 26.035 37.407999999999994 26.035 C 37.331999999999994 25.916 37.211999999999996 25.867 37.114999999999995 25.771 C 36.885999999999996 25.546 36.629999999999995 25.267 36.440999999999995 25.009 C 35.907 24.284 35.434999999999995 23.490000000000002 35.004999999999995 22.664 C 34.8 22.269000000000002 34.620999999999995 21.835 34.44799999999999 21.433 C 34.38099999999999 21.278 34.38199999999999 21.044 34.242999999999995 20.964 C 34.053 21.258 33.77499999999999 21.496 33.62799999999999 21.843 C 33.39399999999999 22.398 33.36299999999999 23.076 33.276999999999994 23.777 C 33.224999999999994 23.795 33.24799999999999 23.783 33.217999999999996 23.806 C 32.809999999999995 23.707 32.666 23.288 32.513999999999996 22.927 C 32.129999999999995 22.015 32.059 20.547 32.397 19.498 C 32.484 19.226000000000003 32.879 18.371000000000002 32.72 18.12 C 32.644 17.869 32.391999999999996 17.724 32.251999999999995 17.533 C 32.077 17.297 31.903999999999996 16.985 31.782999999999994 16.712 C 31.468999999999994 16.001 31.170999999999996 15.174 30.839999999999993 14.455 C 30.68199999999999 14.111 30.414999999999992 13.764 30.194999999999993 13.459 C 29.951999999999995 13.121 29.678999999999995 12.872 29.490999999999993 12.463 C 29.423999999999992 12.318 29.33299999999999 12.084999999999999 29.43199999999999 11.934999999999999 C 29.46399999999999 11.833999999999998 29.507999999999992 11.791999999999998 29.60799999999999 11.758999999999999 C 29.77799999999999 11.626999999999999 30.25099999999999 11.801999999999998 30.42899999999999 11.876 C 30.89899999999999 12.071 31.29099999999999 12.257 31.688999999999993 12.520999999999999 C 31.879999999999992 12.648 32.07299999999999 12.892999999999999 32.303999999999995 12.960999999999999 C 32.391999999999996 12.960999999999999 32.48 12.960999999999999 32.568 12.960999999999999 C 32.980999999999995 13.056 33.443 12.990999999999998 33.827999999999996 13.107999999999999 C 34.51 13.315 35.12 13.636999999999999 35.67399999999999 13.986999999999998 C 37.36399999999999 15.053999999999998 38.74499999999999 16.572 39.68999999999999 18.384 C 39.84199999999999 18.676000000000002 39.907999999999994 18.954 40.04099999999999 19.263 C 40.31099999999999 19.887 40.65199999999999 20.529000000000003 40.91999999999999 21.139000000000003 C 41.18799999999999 21.748000000000005 41.44999999999999 22.362000000000002 41.828999999999986 22.869000000000003 C 42.02899999999999 23.135000000000005 42.798999999999985 23.278000000000002 43.14799999999999 23.426000000000002 C 43.39299999999999 23.53 43.79499999999999 23.637 44.02699999999999 23.777 C 44.47099999999999 24.045 44.90099999999999 24.364 45.31599999999999 24.656000000000002 C 45.528 24.803 46.167 25.124 46.199 25.389 z" stroke-linecap="round" />
</g>
<g transform="matrix(1 0 0 1 9.08 -9.16)" >
<path style="stroke: none; stroke-width: 1; stroke-dasharray: none; stroke-linecap: butt; stroke-dashoffset: 0; stroke-linejoin: miter; stroke-miterlimit: 4; fill: rgb(0,121,107); fill-rule: nonzero; opacity: 1;" transform=" translate(-33.08, -14.84)" d="M 33.098 14.223 C 32.882999999999996 14.219000000000001 32.731 14.246 32.57 14.282 C 32.57 14.292 32.57 14.301 32.57 14.312 C 32.58 14.312 32.589 14.312 32.6 14.312 C 32.703 14.522 32.883 14.658999999999999 33.01 14.84 C 33.108 15.045 33.205 15.25 33.303 15.455 C 33.312999999999995 15.445 33.321999999999996 15.436 33.332 15.426 C 33.513 15.298 33.597 15.094 33.596000000000004 14.781 C 33.523 14.704 33.512 14.608 33.449000000000005 14.517000000000001 C 33.365 14.394 33.203 14.325 33.098 14.223 z" stroke-linecap="round" />
</g>
</g>
</g>
</svg>