<?xml version="1.0" encoding="utf-8"?>
<!-- Generator: Adobe Illustrator 27.5.0, SVG Export Plug-In . SVG Version: 6.00 Build 0)  -->
<svg version="1.1" xmlns="http://www.w3.org/2000/svg" xmlns:xlink="http://www.w3.org/1999/xlink" x="0px" y="0px"
	 viewBox="0 0 500 500" style="enable-background:new 0 0 500 500;" xml:space="preserve">
<g id="BACKGROUND">
	<rect style="fill:#2C9AD0;" width="500" height="500"/>
</g>
<g id="OBJECTS">
	<g>
		<g>
			
				<line style="fill:none;stroke:#FFFFFF;stroke-linecap:round;stroke-miterlimit:10;stroke-dasharray:5;" x1="94.055" y1="288.454" x2="210" y2="288"/>
			
				<line style="fill:none;stroke:#FFFFFF;stroke-linecap:round;stroke-miterlimit:10;stroke-dasharray:5;" x1="143" y1="179" x2="260" y2="266"/>
			
				<line style="fill:none;stroke:#FFFFFF;stroke-linecap:round;stroke-miterlimit:10;stroke-dasharray:5;" x1="283" y1="122" x2="275" y2="254"/>
			
				<line style="fill:none;stroke:#FFFFFF;stroke-linecap:round;stroke-miterlimit:10;stroke-dasharray:5;" x1="402" y1="132" x2="303" y2="239"/>
			
				<line style="fill:none;stroke:#FFFFFF;stroke-linecap:round;stroke-miterlimit:10;stroke-dasharray:5;" x1="417.278" y1="237.814" x2="282" y2="252"/>
			
				<line style="fill:none;stroke:#FFFFFF;stroke-linecap:round;stroke-miterlimit:10;stroke-dasharray:5;" x1="121.238" y1="396.719" x2="255" y2="271"/>
		</g>
		<g>
			<path style="fill:#FFFFFF;" d="M420.971,129.068c-6.188,3.544-11.198,0.659-11.193-6.438c0.005-7.097,5.022-15.717,11.21-19.261
				c6.195-3.548,11.205-0.67,11.2,6.427C432.183,116.892,427.166,125.52,420.971,129.068 M453.77,76.803l-65.547,37.539L388.193,160
				l65.547-37.539L388.193,160l0.004-6.034l65.547-37.539L453.77,76.803"/>
			<polyline style="fill:#3C4445;" points="453.744,116.427 388.197,153.966 388.193,160 453.74,122.461 453.744,116.427 			"/>
			<path style="fill:#4CC0DB;" d="M415.614,128.603l0.012-17.457l13.181,1.177L415.614,128.603 M420.988,103.368
				c-6.189,3.544-11.206,12.165-11.21,19.261c-0.005,7.097,5.005,9.982,11.193,6.438c6.195-3.548,11.212-12.176,11.217-19.273
				C432.192,102.698,427.183,99.82,420.988,103.368"/>
			<polyline style="fill:#FFFFFF;" points="415.625,111.146 415.614,128.603 428.806,112.323 415.625,111.146 			"/>
		</g>
		<g>
			<path style="fill:#FFFFFF;" d="M46.499,440.446c-1.611,0.922-2.909,0.177-2.908-1.67c0.001-1.847,1.301-4.081,2.912-5.003
				c1.611-0.923,2.909-0.177,2.907,1.67C49.409,437.29,48.11,439.523,46.499,440.446 M55.812,435.112
				c-1.611,0.922-2.909,0.177-2.907-1.67c0.001-1.847,1.301-4.081,2.912-5.003c1.611-0.922,2.922-0.184,2.92,1.663
				C58.736,431.948,57.423,434.189,55.812,435.112 M65.138,429.771c-1.611,0.923-2.909,0.177-2.907-1.67
				c0.001-1.847,1.301-4.081,2.912-5.003c1.611-0.922,2.909-0.177,2.907,1.67C68.049,426.615,66.749,428.848,65.138,429.771
				 M55.829,409.596c-12.548,7.186-22.724,22.708-22.732,34.654c-0.007,10.144,7.313,14.453,17.197,11.146l14.942,4.099
				l-2.823-11.337c9.328-8.037,16.114-20.173,16.12-29.929C78.54,406.282,68.376,402.41,55.829,409.596"/>
			<path style="fill:#00283E;stroke:#1A2E35;stroke-miterlimit:10;" d="M46.503,433.772c-1.611,0.922-2.91,3.156-2.912,5.003
				c-0.001,1.847,1.297,2.593,2.908,1.67c1.611-0.922,2.91-3.156,2.912-5.003C49.412,433.595,48.114,432.85,46.503,433.772"/>
			<path style="fill:#00283E;stroke:#1A2E35;stroke-miterlimit:10;" d="M55.816,428.439c-1.611,0.922-2.91,3.156-2.912,5.003
				c-0.001,1.847,1.297,2.593,2.907,1.67c1.611-0.923,2.924-3.164,2.925-5.01C58.738,428.254,57.427,427.516,55.816,428.439"/>
			<path style="fill:#00283E;stroke:#1A2E35;stroke-miterlimit:10;" d="M65.142,423.098c-1.611,0.922-2.911,3.156-2.912,5.003
				c-0.001,1.847,1.297,2.593,2.907,1.67c1.611-0.922,2.91-3.156,2.912-5.003C68.051,422.921,66.753,422.175,65.142,423.098"/>
			<path style="fill:#FFE895;" d="M92.697,420.137c-1.156,0.662-2.104,0.118-2.103-1.223c0.001-1.326,0.95-2.956,2.106-3.618
				c1.169-0.669,2.117-0.125,2.116,1.201C94.815,417.837,93.866,419.468,92.697,420.137 M99.451,416.269
				c-1.156,0.662-2.104,0.118-2.103-1.223c0.001-1.326,0.95-2.956,2.106-3.618c1.169-0.669,2.116-0.125,2.116,1.201
				C101.569,413.969,100.62,415.6,99.451,416.269 M106.205,412.401c-1.169,0.67-2.104,0.118-2.103-1.223
				c0.001-1.326,0.937-2.949,2.106-3.618c1.169-0.67,2.117-0.125,2.116,1.201C108.323,410.101,107.374,411.731,106.205,412.401
				 M99.463,397.769c-9.092,5.207-16.462,16.456-16.467,25.11c-0.005,7.075,4.901,10.236,11.654,8.334l-2.045,10.552l10.839-15.38
				c7.158-5.797,12.475-15.006,12.479-22.365C115.928,395.367,108.555,392.562,99.463,397.769"/>
			<path style="fill:#00283E;stroke:#1A2E35;stroke-miterlimit:10;" d="M106.208,407.56c-1.169,0.669-2.105,2.292-2.106,3.618
				c-0.001,1.34,0.934,1.892,2.103,1.223c1.169-0.669,2.118-2.3,2.119-3.64C108.325,407.435,107.377,406.89,106.208,407.56"/>
			<path style="fill:#00283E;stroke:#1A2E35;stroke-miterlimit:10;" d="M99.454,411.428c-1.156,0.662-2.105,2.292-2.106,3.618
				c-0.001,1.34,0.947,1.885,2.103,1.223c1.169-0.669,2.118-2.3,2.119-3.641C101.571,411.303,100.623,410.759,99.454,411.428"/>
			<path style="fill:#00283E;stroke:#1A2E35;stroke-miterlimit:10;" d="M92.7,415.296c-1.156,0.662-2.105,2.293-2.106,3.618
				c-0.001,1.341,0.947,1.885,2.103,1.223c1.169-0.67,2.118-2.3,2.119-3.641C94.816,415.171,93.869,414.627,92.7,415.296"/>
		</g>
		<g>
			<g>
				<g>
					<polygon style="fill:#3C4445;" points="449.761,178.137 449.786,237.666 391.254,270.613 391.229,211.084 					"/>
				</g>
				<g>
					<polygon style="fill:#FFFFFF;" points="446.463,183.35 446.485,236.168 394.553,265.4 394.53,212.583 					"/>
				</g>
				<polygon style="fill:#4CC0DB;" points="446.475,212.054 441.076,206.14 429.273,228.503 416.849,222.291 394.553,265.4 
					446.485,236.168 				"/>
				<path style="fill:#4CC0DB;" d="M404.136,216.613c-3.249,1.861-5.883,6.387-5.885,10.112c-0.002,3.726,2.628,5.241,5.877,3.38
					c3.252-1.863,5.887-6.392,5.889-10.118C410.019,216.261,407.389,214.75,404.136,216.613"/>
			</g>
			<g>
				<g>
					<polygon style="fill:#3C4445;" points="462.912,185.846 462.937,245.375 404.405,278.322 404.38,218.793 					"/>
				</g>
				<g>
					<polygon style="fill:#FFFFFF;" points="459.613,191.059 459.636,243.877 407.703,273.109 407.681,220.292 					"/>
				</g>
				<polygon style="fill:#4CC0DB;" points="459.626,219.763 454.226,213.849 442.424,236.212 430,230 407.703,273.109 
					459.636,243.877 				"/>
				<path style="fill:#4CC0DB;" d="M417.287,224.322c-3.249,1.861-5.883,6.387-5.885,10.112c-0.002,3.726,2.628,5.241,5.877,3.38
					c3.252-1.863,5.886-6.392,5.889-10.118C423.169,223.97,420.539,222.459,417.287,224.322"/>
			</g>
		</g>
		<g>
			<g>
				<g style="enable-background:new    ;">
					<defs>
						<polygon id="SVGID_1_" style="enable-background:new    ;" points="283.899,82.002 284.053,27.743 320.451,48.758 
							320.297,103.016 						"/>
					</defs>
					<use xlink:href="#SVGID_1_"  style="overflow:visible;fill:#FFD743;"/>
					<clipPath id="SVGID_00000041275046405621145540000016443993110469948095_">
						<use xlink:href="#SVGID_1_"  style="overflow:visible;"/>
					</clipPath>
					<g style="clip-path:url(#SVGID_00000041275046405621145540000016443993110469948095_);">
						<path style="fill:#FFE69A;" d="M288.601,74.716l0.005-1.889l27.05,15.617l-0.005,1.889L288.601,74.716 M288.62,67.942
							l0.006-1.898l27.05,15.617l-0.005,1.898L288.62,67.942 M288.64,61.158l0.005-1.898l27.05,15.617l-0.005,1.898L288.64,61.158
							 M288.659,54.375l0.005-1.889l27.05,15.617l-0.005,1.89L288.659,54.375 M288.678,47.592l0.005-1.889l27.05,15.617
							l-0.005,1.889L288.678,47.592 M288.697,40.808l0.005-1.889l27.05,15.617l-0.005,1.889L288.697,40.808 M320.451,48.758
							l-36.397-21.014l-0.154,54.258l36.397,21.014L320.451,48.758"/>
						<polyline style="fill:#00283E;stroke:#1A2E35;stroke-miterlimit:10;" points="315.753,54.536 288.703,38.919 288.697,40.808 
							315.747,56.426 315.753,54.536 						"/>
						<polyline style="fill:#00283E;stroke:#1A2E35;stroke-miterlimit:10;" points="315.733,61.319 288.684,45.702 288.678,47.592 
							315.728,63.209 315.733,61.319 						"/>
						<polyline style="fill:#00283E;stroke:#1A2E35;stroke-miterlimit:10;" points="315.714,68.103 288.664,52.486 288.659,54.375 
							315.709,69.992 315.714,68.103 						"/>
						<polyline style="fill:#00283E;stroke:#1A2E35;stroke-miterlimit:10;" points="315.695,74.878 288.645,59.26 288.64,61.158 
							315.69,76.776 315.695,74.878 						"/>
						<polyline style="fill:#00283E;stroke:#1A2E35;stroke-miterlimit:10;" points="315.676,81.661 288.626,66.044 288.62,67.942 
							315.67,83.559 315.676,81.661 						"/>
						<polyline style="fill:#00283E;stroke:#1A2E35;stroke-miterlimit:10;" points="315.657,88.444 288.607,72.827 288.601,74.716 
							315.651,90.334 315.657,88.444 						"/>
					</g>
				</g>
			</g>
			<g>
				<g style="enable-background:new    ;">
					<defs>
						<polygon id="SVGID_00000090283038320102971290000013174943365347357606_" style="enable-background:new    ;" points="
							257.375,96.994 257.529,42.736 293.926,63.75 293.772,118.008 						"/>
					</defs>
					<clipPath id="SVGID_00000094580661317024533540000010205311918656082060_">
						<use xlink:href="#SVGID_00000090283038320102971290000013174943365347357606_"  style="overflow:visible;"/>
					</clipPath>
					<g style="clip-path:url(#SVGID_00000094580661317024533540000010205311918656082060_);">
						<path style="fill:#FFFFFF;" d="M262.077,89.709l0.005-1.889l27.05,15.617l-0.005,1.889L262.077,89.709 M262.096,82.934
							l0.005-1.898l27.05,15.617l-0.005,1.898L262.096,82.934 M262.115,76.15l0.005-1.898l27.05,15.617l-0.005,1.898L262.115,76.15
							 M262.134,69.367l0.005-1.889l27.05,15.617l-0.005,1.889L262.134,69.367 M262.154,62.584l0.005-1.889l27.05,15.617
							l-0.005,1.89L262.154,62.584 M262.173,55.8l0.005-1.889l27.05,15.617l-0.005,1.889L262.173,55.8 M293.926,63.75
							l-36.397-21.014l-0.154,54.258l36.397,21.014L293.926,63.75"/>
						<polyline style="fill:#00283E;stroke:#1A2E35;stroke-miterlimit:10;" points="289.228,69.528 262.178,53.911 262.173,55.8 
							289.223,71.418 289.228,69.528 						"/>
						<polyline style="fill:#00283E;stroke:#1A2E35;stroke-miterlimit:10;" points="289.209,76.312 262.159,60.694 262.154,62.584 
							289.204,78.201 289.209,76.312 						"/>
						<polyline style="fill:#00283E;stroke:#1A2E35;stroke-miterlimit:10;" points="289.19,83.095 262.14,67.478 262.134,69.367 
							289.184,84.984 289.19,83.095 						"/>
						<polyline style="fill:#00283E;stroke:#1A2E35;stroke-miterlimit:10;" points="289.171,89.87 262.12,74.252 262.115,76.15 
							289.165,91.768 289.171,89.87 						"/>
						<polyline style="fill:#00283E;stroke:#1A2E35;stroke-miterlimit:10;" points="289.151,96.653 262.101,81.036 262.096,82.934 
							289.146,98.551 289.151,96.653 						"/>
						<polyline style="fill:#00283E;stroke:#1A2E35;stroke-miterlimit:10;" points="289.132,103.437 262.082,87.819 262.077,89.709 
							289.127,105.326 289.132,103.437 						"/>
					</g>
				</g>
			</g>
			<g>
				<g style="enable-background:new    ;">
					<defs>
						<polygon id="SVGID_00000160886733695713818820000003683637760122251943_" style="enable-background:new    ;" points="
							230.85,111.986 231.004,57.728 267.401,78.742 267.247,133 						"/>
					</defs>
					<use xlink:href="#SVGID_00000160886733695713818820000003683637760122251943_"  style="overflow:visible;fill:#4CC0DB;"/>
					<clipPath id="SVGID_00000036239381030835955720000012406289827842261182_">
						<use xlink:href="#SVGID_00000160886733695713818820000003683637760122251943_"  style="overflow:visible;"/>
					</clipPath>
					<g style="clip-path:url(#SVGID_00000036239381030835955720000012406289827842261182_);">
						<path style="fill:#9AE1FA;" d="M235.552,104.701l0.005-1.889l27.05,15.617l-0.005,1.889L235.552,104.701 M235.571,97.926
							l0.005-1.898l27.05,15.617l-0.005,1.898L235.571,97.926 M235.59,91.143l0.005-1.898l27.05,15.617l-0.005,1.898L235.59,91.143
							 M235.61,84.359l0.005-1.889l27.05,15.617l-0.005,1.889L235.61,84.359 M235.629,77.576l0.005-1.89l27.05,15.617l-0.005,1.889
							L235.629,77.576 M235.648,70.793l0.005-1.89l27.05,15.617l-0.005,1.889L235.648,70.793 M267.401,78.742l-36.397-21.014
							l-0.154,54.258L267.247,133L267.401,78.742"/>
						<polyline style="fill:#00283E;stroke:#1A2E35;stroke-miterlimit:10;" points="262.703,84.521 235.654,68.903 235.648,70.793 
							262.698,86.41 262.703,84.521 						"/>
						<polyline style="fill:#00283E;stroke:#1A2E35;stroke-miterlimit:10;" points="262.684,91.304 235.634,75.687 235.629,77.576 
							262.679,93.193 262.684,91.304 						"/>
						<polyline style="fill:#00283E;stroke:#1A2E35;stroke-miterlimit:10;" points="262.665,98.087 235.615,82.47 235.61,84.359 
							262.66,99.977 262.665,98.087 						"/>
						<polyline style="fill:#00283E;stroke:#1A2E35;stroke-miterlimit:10;" points="262.646,104.862 235.596,89.245 235.59,91.143 
							262.64,106.76 262.646,104.862 						"/>
						<polyline style="fill:#00283E;stroke:#1A2E35;stroke-miterlimit:10;" points="262.627,111.645 235.577,96.028 235.571,97.926 
							262.621,113.543 262.627,111.645 						"/>
						<polyline style="fill:#00283E;stroke:#1A2E35;stroke-miterlimit:10;" points="262.607,118.429 235.557,102.812 
							235.552,104.701 262.602,120.318 262.607,118.429 						"/>
					</g>
				</g>
			</g>
		</g>
		<g>
			<g style="enable-background:new    ;">
				<path style="fill:#FFE895;" d="M96.777,158.772c1.659-0.95,3.25-1.572,4.763-1.916c-0.251-1.302-0.386-2.715-0.385-4.251
					c0.008-12.618,8.932-27.95,19.934-34.251c5.532-3.168,10.534-3.446,14.139-1.335l10.381,6.082
					c1.339-1.098,2.725-2.076,4.149-2.892c5.537-3.171,10.544-3.45,14.151-1.337l10.667,6.249
					c-3.607-2.113-8.614-1.834-14.151,1.337c-3.183,1.822-6.191,4.424-8.86,7.477l-10.667-6.249c1.472-1.683,3.049-3.222,4.7-4.576
					c-3.58-1.93-8.458-1.59-13.841,1.493c-11.003,6.301-19.926,21.633-19.934,34.251c-0.001,1.535,0.134,2.949,0.385,4.251
					c-1.513,0.344-3.104,0.966-4.763,1.916c-9.023,5.168-16.345,17.736-16.351,28.084c-0.002,2.771,0.54,5.085,1.479,6.916
					l-10.667-6.249c-0.94-1.831-1.481-4.146-1.479-6.916C80.432,176.508,87.754,163.94,96.777,158.772z"/>
				<g>
					<path style="fill:#FFFFFF;" d="M131.757,124.603c-11.003,6.301-19.926,21.633-19.934,34.251
						c-0.001,1.535,0.134,2.949,0.385,4.251c-1.513,0.344-3.104,0.966-4.763,1.916c-9.023,5.168-16.345,17.736-16.351,28.084
						c-0.002,2.771,0.54,5.085,1.479,6.916l84.82-48.577c1.856-4.522,2.935-9.2,2.938-13.55
						c0.008-12.618-8.902-17.737-19.904-11.435c-3.183,1.823-6.191,4.424-8.86,7.477
						C150.623,122.875,142.119,118.669,131.757,124.603z"/>
				</g>
			</g>
		</g>
		<g>
			<polygon style="fill:#FFFFFF;" points="102,245.516 59.726,269.727 59.709,336.585 102,312.364 			"/>
			<polygon style="fill:#4CC0DB;" points="59.723,279.774 102,255.562 102,245.516 59.726,269.727 			"/>
			<path style="fill:#FFFFFF;" d="M97.848,250.384c-1.169,0.669-2.105,2.292-2.106,3.618c-0.001,1.34,0.934,1.892,2.103,1.223
				c1.169-0.67,2.118-2.3,2.119-3.641C99.964,250.259,99.017,249.714,97.848,250.384"/>
			<path style="fill:#FFFFFF;" d="M91.093,254.252c-1.156,0.662-2.105,2.292-2.106,3.618c-0.001,1.341,0.946,1.885,2.103,1.223
				c1.169-0.669,2.118-2.3,2.119-3.64C93.21,254.127,92.262,253.583,91.093,254.252"/>
			<path style="fill:#FFFFFF;" d="M84.339,258.12c-1.156,0.662-2.105,2.293-2.106,3.618c-0.001,1.341,0.947,1.885,2.103,1.223
				c1.169-0.669,2.118-2.3,2.119-3.64C86.455,257.995,85.508,257.451,84.339,258.12"/>
			<g>
				<polyline style="fill:#00283E;stroke:#1A2E35;stroke-miterlimit:10;" points="75.686,292.044 75.008,292.432 65.35,303.779 
					65.349,305.973 74.999,306.262 75.677,305.873 75.679,303.445 68.069,303.3 68.069,303.242 75.685,294.443 75.686,292.044 				
					"/>
				<polyline style="fill:#00283E;stroke:#1A2E35;stroke-miterlimit:10;" points="85.036,281.255 82.964,282.442 76.986,308.879 
					76.986,309.568 79.026,308.399 85.036,281.944 85.036,281.255 				"/>
				<polyline style="fill:#00283E;stroke:#1A2E35;stroke-miterlimit:10;" points="87.099,285.508 86.415,285.9 86.413,288.328 
					94.055,288.454 94.055,288.513 86.407,297.33 86.406,299.729 87.09,299.337 96.748,287.99 96.749,285.797 87.099,285.508 				
					"/>
			</g>
		</g>
	</g>
	<g>
		<polygon style="fill:#056D95;" points="197.236,442.976 379.371,337.82 309.128,297 126.994,402.155 		"/>
		<g>
			<g>
				<g>
					<g style="enable-background:new    ;">
						<g>
							<polygon style="fill:#76787F;" points="265.815,418.081 220.38,391.677 220.365,386.139 265.8,412.543 							"/>
						</g>
						<g>
							<polygon style="fill:#D2D3D8;" points="265.8,412.543 220.365,386.139 286.154,348.155 331.589,374.559 							"/>
						</g>
						<polygon style="fill:#76787F;" points="245.737,400.884 311.526,362.9 286.154,348.155 220.365,386.139 						"/>
						<g>
							<polygon style="fill:#AEAFB3;" points="331.589,374.559 331.605,380.098 265.815,418.081 265.8,412.543 							"/>
						</g>
					</g>
				</g>
				<g>
					<g style="enable-background:new    ;">
						<g>
							<polygon style="fill:#76787F;" points="161.709,435.509 149.776,428.519 149.897,223.167 161.829,230.157 							"/>
						</g>
						<g>
							<polygon style="fill:#D2D3D8;" points="161.829,230.157 149.897,223.167 359.719,103 371.652,109.99 							"/>
						</g>
						<g>
							<polygon style="fill:#00283E;stroke:#1A2E35;stroke-miterlimit:10;" points="371.652,109.99 371.531,315.342 
								161.709,435.509 161.829,230.157 							"/>
						</g>
						<g>
							<polygon style="fill:#818181;" points="362.224,123.625 362.114,284.922 171.136,394.296 171.246,232.999 							"/>
						</g>
						<polygon style="fill:#D2D3D8;" points="161.726,409.727 161.709,435.509 371.531,315.342 371.548,289.56 						"/>
					</g>
				</g>
			</g>
			<g>
				<path style="fill:#FFD812;" d="M240.09,251.812c-6.628,3.796-9.725,10.542-9.73,18.068l-0.017,25.714
					c-0.005,7.527,3.086,10.729,9.714,6.933c6.692-3.833,9.789-10.579,9.794-18.105l0.004-6.179l-4.584,2.625l-0.004,6.462
					c-0.003,4.474-1.552,8.06-5.082,10.082c-3.469,1.987-5.079,0.21-5.076-4.265l0.017-26.28c0.003-4.474,1.616-8.097,5.085-10.084
					c3.53-2.022,5.075-0.208,5.072,4.267l-0.003,4.757l4.584-2.625l0.003-4.474C249.873,251.181,246.782,247.98,240.09,251.812"/>
				<polyline style="fill:#FFD812;" points="281.714,228.47 274.961,232.337 268.061,275.98 260.963,240.354 254.214,244.219 
					254.181,293.944 258.39,291.533 258.416,251.896 265.575,287.345 270.223,284.682 277.124,240.826 277.097,280.819 
					281.681,278.194 281.714,228.47 				"/>
				<path style="fill:#FFD812;" d="M295.773,219.922c-6.506,3.726-9.603,10.259-9.608,17.929
					c-0.009,13.992,14.482,6.758,14.474,17.841c-0.003,4.474-1.616,8.024-5.082,10.009c-3.469,1.987-5.079,0.283-5.076-4.191
					l0.002-3.126l-4.523,2.59l-0.002,2.839c-0.005,7.531,3.09,10.657,9.717,6.861c6.628-3.796,9.789-10.505,9.794-18.036
					c0.009-13.992-14.546-6.721-14.539-17.874c0.003-4.405,1.491-7.882,4.96-9.869c3.469-1.987,4.954-0.212,4.951,4.267
					l-0.001,1.631l4.584-2.625l0.001-1.348C305.431,219.289,302.337,216.163,295.773,219.922"/>
			</g>
			<g>
				<polygon style="fill:none;stroke:#FFFFFF;stroke-miterlimit:10;stroke-dasharray:5;" points="321.569,156.325 210.173,220.122 
					210.173,258.738 321.569,194.941 				"/>
			</g>
			<g>
				<polygon style="fill:none;stroke:#FFFFFF;stroke-miterlimit:10;stroke-dasharray:5;" points="321.569,262.65 210.173,326.447 
					210.173,365.063 321.569,301.266 				"/>
			</g>
			<g>
				<polygon style="fill:none;stroke:#FFFFFF;stroke-miterlimit:10;stroke-dasharray:5;" points="179.738,332.866 206.022,317.813 
					206.022,275.56 179.767,290.596 				"/>
				<polygon style="fill:none;stroke:#FFFFFF;stroke-miterlimit:10;stroke-dasharray:5;" points="206.022,261.736 206.022,220.312 
					179.804,235.327 179.776,276.767 				"/>
				<polygon style="fill:none;stroke:#FFFFFF;stroke-miterlimit:10;stroke-dasharray:5;" points="179.729,346.695 179.705,382.159 
					206.022,367.087 206.022,331.637 				"/>
			</g>
			<g>
				<polygon style="fill:none;stroke:#FFFFFF;stroke-miterlimit:10;stroke-dasharray:5;" points="330.301,246.719 356.585,231.667 
					356.585,189.413 330.329,204.449 				"/>
				<polygon style="fill:none;stroke:#FFFFFF;stroke-miterlimit:10;stroke-dasharray:5;" points="356.585,175.589 356.585,134.166 
					330.367,149.181 330.339,190.62 				"/>
				<polygon style="fill:none;stroke:#FFFFFF;stroke-miterlimit:10;stroke-dasharray:5;" points="330.291,260.548 330.267,296.012 
					356.585,280.94 356.585,245.49 				"/>
			</g>
		</g>
	</g>
</g>
</svg>
